<svg version="1.1" id="Layer_1" xmlns="http://www.w3.org/2000/svg" xmlns:xlink="http://www.w3.org/1999/xlink" x="0px" y="0px"
	 width="100%" viewBox="0 0 192 160" enable-background="new 0 0 192 160" xml:space="preserve">
<path fill="#010101" opacity="1.000000" stroke="none" 
	d="
M1.000000,122.000000 
	C1.000000,81.707260 1.000000,41.414513 1.000000,1.060885 
	C64.894951,1.060885 128.789978,1.060885 193.000000,1.060885 
	C193.000000,41.353680 193.000000,81.708183 192.708603,122.831558 
	C191.357742,121.798668 190.295074,119.998772 189.239349,118.194824 
	C184.771637,110.560768 179.725037,103.197479 175.990570,95.220024 
	C171.588470,85.816345 166.099960,77.218643 160.127167,68.744492 
	C160.952866,67.271820 161.595734,65.972839 162.309479,64.714043 
	C167.424545,55.692760 165.238129,47.278992 160.072891,39.200043 
	C156.668777,33.875679 152.369949,29.428707 145.615723,29.065273 
	C136.244965,28.561054 126.739426,27.965740 118.960854,34.473701 
	C117.949303,32.754066 116.887383,31.391478 115.720123,29.710659 
	C114.743599,29.306059 113.872406,29.219685 112.620255,29.073856 
	C111.185425,30.692574 110.131554,32.370743 108.962036,34.170052 
	C108.846390,34.291195 108.845123,34.626148 108.644180,34.616657 
	C106.942566,37.626976 105.441895,40.646790 103.633209,43.796852 
	C99.842979,49.256454 96.360764,54.585800 92.561768,60.076298 
	C90.853996,62.758312 89.462990,65.279175 88.019455,67.856003 
	C87.966934,67.911980 88.071732,68.024162 88.018112,67.728271 
	C87.673241,67.175232 87.382004,66.918083 87.157135,66.513115 
	C87.223511,66.365303 87.098846,66.066177 87.020294,65.695572 
	C85.975067,63.888725 85.008400,62.452484 84.139465,60.755051 
	C83.908646,59.958496 83.580086,59.423130 83.146774,58.586975 
	C80.838326,54.810680 78.634628,51.335175 76.047974,47.255692 
	C74.821289,48.831039 73.978661,49.913170 73.058411,51.339943 
	C71.665764,53.744839 70.350739,55.805088 68.708679,57.995529 
	C67.901039,59.383553 67.420433,60.641380 66.611694,62.032211 
	C64.158394,66.140862 62.033218,70.116516 59.713760,74.334473 
	C59.245045,75.302124 58.970615,76.027473 58.519272,76.697342 
	C55.974651,80.306732 53.606949,83.971603 51.054443,87.290268 
	C50.207619,86.031418 49.515747,85.138763 48.888641,84.202713 
	C45.883812,79.717575 42.998585,75.145409 39.797867,70.805504 
	C39.291691,70.119164 36.576843,69.932899 36.263149,70.414429 
	C34.024864,73.850212 32.370705,77.669044 30.107040,81.085281 
	C24.011448,90.284515 17.675642,99.324425 11.545347,108.501167 
	C11.131845,109.120163 11.635564,110.351883 11.390358,111.439102 
	C8.925906,114.670860 6.914938,117.868088 4.557976,120.785812 
	C3.891810,121.610466 2.213890,121.617813 1.000000,122.000000 
z"/>
<path fill="#010101" opacity="1.000000" stroke="none" 
	d="
M193.000000,127.000000 
	C193.000000,138.314087 193.000000,149.628174 193.000000,160.942291 
	C128.999985,160.942337 64.999969,160.942337 1.000000,160.942337 
	C1.000000,150.568893 1.000000,140.253098 1.367866,129.099915 
	C3.323936,128.498764 4.911296,128.933228 6.500480,128.940002 
	C19.584328,128.995834 32.668850,128.928177 45.752182,129.027618 
	C47.419781,129.040298 49.081707,129.799728 50.925934,130.588745 
	C52.179134,131.297928 53.252663,131.921539 54.326195,131.921539 
	C69.543335,131.921524 84.760468,131.836929 100.411232,131.808838 
	C104.924706,131.558243 109.001747,131.085510 113.084999,131.023773 
	C121.577248,130.895355 130.077805,131.138031 138.562897,130.860001 
	C140.341904,130.801712 142.068878,129.155869 143.755478,128.293350 
	C143.691132,128.345139 143.811798,128.457947 144.154968,128.715424 
	C158.994568,128.972641 173.491486,129.023056 187.986618,128.885071 
	C189.280273,128.872742 190.562286,127.637360 192.144470,126.702621 
	C192.626144,126.623505 192.813065,126.811752 193.000000,127.000000 
z"/>
<path fill="#95B2D4" opacity="1.000000" stroke="none" 
	d="
M193.000000,126.600006 
	C192.813065,126.811752 192.626144,126.623505 191.685303,126.708725 
	C178.963242,126.980850 166.995056,126.979492 155.018768,126.511749 
	C155.007431,109.934586 154.977951,93.823708 155.032684,77.713127 
	C155.039932,75.579643 155.040726,73.259933 155.853455,71.375313 
	C156.484024,69.913055 158.376511,68.994995 159.796844,68.105225 
	C159.916107,68.562538 159.946625,68.749664 159.977142,68.936798 
	C166.099960,77.218643 171.588470,85.816345 175.990570,95.220024 
	C179.725037,103.197479 184.771637,110.560768 189.239349,118.194824 
	C190.295074,119.998772 191.357742,121.798668 192.708603,123.300217 
	C193.000000,124.066673 193.000000,125.133339 193.000000,126.600006 
z"/>
<path fill="#A4B8D0" opacity="1.000000" stroke="none" 
	d="
M50.746262,130.213211 
	C49.081707,129.799728 47.419781,129.040298 45.752182,129.027618 
	C32.668850,128.928177 19.584328,128.995834 6.500480,128.940002 
	C4.911296,128.933228 3.323936,128.498764 1.367866,128.631256 
	C1.000000,126.958336 1.000000,124.916664 1.000000,122.437500 
	C2.213890,121.617813 3.891810,121.610466 4.557976,120.785812 
	C6.914938,117.868088 8.925906,114.670860 11.406591,111.831711 
	C9.945941,115.006935 8.058816,117.880836 6.384453,120.873764 
	C5.542783,122.378258 5.087803,124.099075 4.457953,125.722069 
	C6.129455,126.147209 7.797802,126.925850 9.472964,126.940804 
	C21.415382,127.047379 33.359543,126.952454 45.302197,127.044891 
	C47.214325,127.059685 49.121685,127.690941 51.005974,128.402893 
	C50.902550,129.250122 50.824406,129.731674 50.746262,130.213211 
z"/>
<path fill="#94B2D5" opacity="1.000000" stroke="none" 
	d="
M51.031250,128.037201 
	C49.121685,127.690941 47.214325,127.059685 45.302197,127.044891 
	C33.359543,126.952454 21.415382,127.047379 9.472964,126.940804 
	C7.797802,126.925850 6.129455,126.147209 4.457953,125.722069 
	C5.087803,124.099075 5.542783,122.378258 6.384453,120.873764 
	C8.058816,117.880836 9.945941,115.006935 11.728926,111.691238 
	C11.635564,110.351883 11.131845,109.120163 11.545347,108.501167 
	C17.675642,99.324425 24.011448,90.284515 30.107040,81.085281 
	C32.370705,77.669044 34.024864,73.850212 36.263149,70.414429 
	C36.576843,69.932899 39.291691,70.119164 39.797867,70.805504 
	C42.998585,75.145409 45.883812,79.717575 48.888641,84.202713 
	C49.515747,85.138763 50.207619,86.031418 51.310234,87.432434 
	C52.824776,89.152573 54.163231,90.241653 54.920086,91.644508 
	C56.745567,95.028076 58.299110,98.558350 60.033089,102.360703 
	C61.355217,104.171875 62.606579,105.651794 64.058144,107.151810 
	C64.258347,107.171906 64.656471,107.146187 64.689514,107.497864 
	C64.657608,108.557167 64.592651,109.264793 64.221519,110.065811 
	C60.856277,114.301636 57.643703,118.344772 54.852062,122.660210 
	C54.199223,123.669418 54.973194,125.601608 55.071018,127.336838 
	C55.051323,127.564522 55.000980,128.018799 54.603882,127.988647 
	C53.148273,127.984734 52.089764,128.010971 51.031250,128.037201 
z"/>
<path fill="#A9BED4" opacity="1.000000" stroke="none" 
	d="
M160.127167,68.744492 
	C159.946625,68.749664 159.916107,68.562538 159.847351,67.759193 
	C158.791580,66.377144 157.774063,65.611313 156.876434,64.491081 
	C157.351700,63.209354 157.667068,62.264324 158.068451,61.357365 
	C164.344940,47.174809 151.593918,31.338266 137.391693,32.645592 
	C130.901260,33.243046 126.276474,36.311287 121.439972,40.010117 
	C120.876442,39.583187 120.532669,39.253006 120.116241,38.568214 
	C119.665878,37.085987 119.288177,35.958370 118.910477,34.830750 
	C126.739426,27.965740 136.244965,28.561054 145.615723,29.065273 
	C152.369949,29.428707 156.668777,33.875679 160.072891,39.200043 
	C165.238129,47.278992 167.424545,55.692760 162.309479,64.714043 
	C161.595734,65.972839 160.952866,67.271820 160.127167,68.744492 
z"/>
<path fill="#227AB2" opacity="1.000000" stroke="none" 
	d="
M118.960846,34.473701 
	C119.288177,35.958370 119.665878,37.085987 119.726662,38.667976 
	C118.607536,40.929588 117.148132,42.723484 117.111115,44.546261 
	C116.891510,55.361988 117.001411,66.184410 116.625793,77.003693 
	C115.501541,77.002968 114.752052,77.003136 113.798752,76.799797 
	C113.062485,76.397385 112.530037,76.198486 112.024551,75.579155 
	C112.361397,73.359032 112.926544,71.561188 112.939598,69.759354 
	C113.022858,58.264507 113.010948,46.768623 112.943573,35.273598 
	C112.937157,34.180016 112.333237,33.089935 112.058624,31.715651 
	C112.411430,30.957468 112.712334,30.481861 113.364647,30.005058 
	C114.419197,30.012203 115.122337,30.020544 115.825470,30.028885 
	C116.887383,31.391478 117.949303,32.754066 118.960846,34.473701 
z"/>
<path fill="#6D9AC7" opacity="1.000000" stroke="none" 
	d="
M63.857941,107.131721 
	C62.606579,105.651794 61.355217,104.171875 60.044571,101.889122 
	C59.990101,95.987679 60.146873,90.882965 59.942413,85.792755 
	C59.820904,82.767639 59.130703,79.765366 58.696190,76.752823 
	C58.970615,76.027473 59.245045,75.302124 59.963493,74.114960 
	C61.926388,72.093994 63.445267,70.534836 65.051880,69.387794 
	C66.685341,82.311592 66.714455,94.771187 63.857941,107.131721 
z"/>
<path fill="#3B81B5" opacity="1.000000" stroke="none" 
	d="
M103.941223,43.666599 
	C105.441895,40.646790 106.942566,37.626976 108.633026,35.031281 
	C108.881012,39.054337 109.061180,42.656212 108.974609,46.251667 
	C108.711632,57.173496 108.345558,68.092850 108.015930,79.344208 
	C108.010498,80.116974 108.008766,80.558678 107.787598,81.243881 
	C107.773811,83.014450 107.979462,84.541527 108.123535,86.391808 
	C107.365105,87.802658 106.668251,88.890312 105.720825,89.857048 
	C104.972183,89.485725 104.474121,89.235329 103.981918,88.553162 
	C104.324913,75.499847 104.697388,62.878998 104.949867,50.255749 
	C104.978142,48.841930 104.326103,47.414505 103.988731,45.605682 
	C103.972351,44.700851 103.956787,44.183723 103.941223,43.666599 
z"/>
<path fill="#2F7DB2" opacity="1.000000" stroke="none" 
	d="
M108.019630,79.013161 
	C108.345558,68.092850 108.711632,57.173496 108.974609,46.251667 
	C109.061180,42.656212 108.881012,39.054337 108.833969,35.040771 
	C108.845123,34.626148 108.846390,34.291195 109.251740,34.079300 
	C110.440285,33.244350 111.223495,32.621292 112.006706,31.998232 
	C112.333237,33.089935 112.937157,34.180016 112.943573,35.273598 
	C113.010948,46.768623 113.022858,58.264507 112.939598,69.759354 
	C112.926544,71.561188 112.361397,73.359032 111.752449,75.750000 
	C110.308792,77.231911 109.164215,78.122536 108.019630,79.013161 
z"/>
<path fill="#4485B7" opacity="1.000000" stroke="none" 
	d="
M73.136032,50.995296 
	C73.978661,49.913170 74.821289,48.831039 76.047974,47.255692 
	C78.634628,51.335175 80.838326,54.810680 83.085236,58.925575 
	C83.094528,60.028378 83.060608,60.491783 82.822906,60.836327 
	C82.359566,60.533199 82.140701,60.309170 81.826462,59.730591 
	C80.573700,58.053455 79.457008,56.691109 77.991119,54.902748 
	C76.980705,69.439919 76.045013,82.902145 75.088943,96.693756 
	C74.111252,98.712326 73.153938,100.401505 71.891891,101.999756 
	C71.392014,100.603844 71.196869,99.298866 71.164108,97.658508 
	C71.897324,95.617668 72.909798,93.927055 72.967705,92.204361 
	C73.360092,80.531563 73.589424,68.852585 73.770515,57.174042 
	C73.802391,55.118233 73.359612,53.055065 73.136032,50.995296 
z"/>
<path fill="#6394BF" opacity="1.000000" stroke="none" 
	d="
M103.633209,43.796852 
	C103.956787,44.183723 103.972351,44.700851 103.745605,45.834892 
	C102.658730,48.294136 101.814171,50.136463 100.686394,52.173576 
	C99.419502,54.855724 97.736694,57.304497 97.596832,59.838428 
	C97.300476,65.208000 98.021378,70.629143 97.840187,76.012825 
	C97.793808,77.390900 95.938812,78.708115 94.682671,79.886101 
	C93.945213,79.154305 93.439842,78.589691 92.847961,77.694405 
	C92.113365,75.731949 91.465256,74.100166 90.975204,72.088531 
	C91.715019,67.777489 92.296783,63.846317 92.878540,59.915146 
	C96.360764,54.585800 99.842979,49.256454 103.633209,43.796852 
z"/>
<path fill="#1F79B2" opacity="1.000000" stroke="none" 
	d="
M87.098846,66.066177 
	C87.098846,66.066177 87.223511,66.365303 87.300789,66.754547 
	C87.609283,67.437248 87.840508,67.730705 88.071732,68.024162 
	C88.071732,68.024162 87.966934,67.911980 87.977066,68.198479 
	C88.595299,69.676971 89.203400,70.868973 89.432175,72.097786 
	C88.368576,73.929962 87.212776,75.691864 87.082603,77.526543 
	C86.551895,85.006393 86.335068,92.508522 85.668854,100.000824 
	C84.890190,99.997131 84.445244,99.995056 83.936386,99.634216 
	C83.580925,97.850906 83.289398,96.426369 82.998634,94.533058 
	C83.002419,86.315361 83.033897,78.566292 82.993576,70.817589 
	C82.978745,67.967346 83.680122,65.880592 87.098846,66.066177 
z"/>
<path fill="#4B88BC" opacity="1.000000" stroke="none" 
	d="
M73.058411,51.339943 
	C73.359612,53.055065 73.802391,55.118233 73.770515,57.174042 
	C73.589424,68.852585 73.360092,80.531563 72.967705,92.204361 
	C72.909798,93.927055 71.897324,95.617668 70.911819,97.660645 
	C70.328979,97.999046 70.160797,97.999931 69.995293,97.568069 
	C70.330666,88.352921 70.787659,79.572548 70.931534,70.787041 
	C70.984970,67.524178 70.304565,64.249290 69.960251,60.642212 
	C69.653030,59.491474 69.344368,58.678406 69.035713,57.865337 
	C70.350739,55.805088 71.665764,53.744839 73.058411,51.339943 
z"/>
<path fill="#7CA0C6" opacity="1.000000" stroke="none" 
	d="
M58.519268,76.697342 
	C59.130703,79.765366 59.820904,82.767639 59.942413,85.792755 
	C60.146873,90.882965 59.990101,95.987679 59.973801,101.557877 
	C58.299110,98.558350 56.745567,95.028076 54.920086,91.644508 
	C54.163231,90.241653 52.824776,89.152573 51.495033,87.778641 
	C53.606949,83.971603 55.974651,80.306732 58.519268,76.697342 
z"/>
<path fill="#2A7CB2" opacity="1.000000" stroke="none" 
	d="
M87.020294,65.695572 
	C83.680122,65.880592 82.978745,67.967346 82.993576,70.817589 
	C83.033897,78.566292 83.002419,86.315361 82.651260,94.519928 
	C81.202850,94.648445 80.102592,94.321327 79.028099,93.574066 
	C79.369560,84.210876 79.577072,75.261726 80.080154,66.329239 
	C80.199730,64.206017 81.308670,62.138508 81.962532,60.045372 
	C82.140701,60.309170 82.359566,60.533199 82.991394,60.853764 
	C83.589584,61.001453 83.815605,61.010178 84.041733,61.016243 
	C85.008400,62.452484 85.975067,63.888725 87.020294,65.695572 
z"/>
<path fill="#6D9AC7" opacity="1.000000" stroke="none" 
	d="
M89.811501,72.060974 
	C89.203400,70.868973 88.595299,69.676971 88.029587,68.142502 
	C89.462990,65.279175 90.853996,62.758312 92.561768,60.076298 
	C92.296783,63.846317 91.715019,67.777489 90.728470,71.974716 
	C90.152962,72.180840 89.982231,72.120903 89.811501,72.060974 
z"/>
<path fill="#7CA0C6" opacity="1.000000" stroke="none" 
	d="
M64.964142,68.975670 
	C63.445267,70.534836 61.926388,72.093994 60.157776,73.872665 
	C62.033218,70.116516 64.158394,66.140862 66.630569,62.076500 
	C66.977577,61.987785 67.047325,62.053978 67.043839,62.423729 
	C66.348282,64.854202 65.656212,66.914940 64.964142,68.975670 
z"/>
<path fill="#3B81B5" opacity="1.000000" stroke="none" 
	d="
M112.058624,31.715654 
	C111.223495,32.621292 110.440285,33.244350 109.367386,33.958160 
	C110.131554,32.370743 111.185425,30.692574 112.623184,29.292088 
	C113.007065,29.569771 113.013229,30.006256 113.013229,30.006256 
	C112.712334,30.481861 112.411430,30.957468 112.058624,31.715654 
z"/>
<path fill="#6D9AC7" opacity="1.000000" stroke="none" 
	d="
M68.708679,57.995529 
	C69.344368,58.678406 69.653030,59.491474 69.680115,60.778587 
	C68.614807,61.519749 67.831070,61.786865 67.047325,62.053978 
	C67.047325,62.053978 66.977577,61.987785 66.958702,61.943497 
	C67.420433,60.641380 67.901039,59.383553 68.708679,57.995529 
z"/>
<path fill="#347FB5" opacity="1.000000" stroke="none" 
	d="
M84.139465,60.755051 
	C83.815605,61.010178 83.589584,61.001453 83.195175,60.972626 
	C83.060608,60.491783 83.094528,60.028378 83.189987,59.226368 
	C83.580086,59.423130 83.908646,59.958496 84.139465,60.755051 
z"/>
<path fill="#2F7DB2" opacity="1.000000" stroke="none" 
	d="
M113.364647,30.005058 
	C113.013229,30.006256 113.007065,29.569771 113.004143,29.351540 
	C113.872406,29.219685 114.743599,29.306059 115.720123,29.710659 
	C115.122337,30.020544 114.419197,30.012203 113.364647,30.005058 
z"/>
<path fill="#6D9AC7" opacity="1.000000" stroke="none" 
	d="
M88.018112,67.728271 
	C87.840508,67.730705 87.609283,67.437248 87.234413,66.902359 
	C87.382004,66.918083 87.673241,67.175232 88.018112,67.728271 
z"/>
<path fill="#A0BBDB" opacity="1.000000" stroke="none" 
	d="
M143.811798,128.457947 
	C143.811798,128.457947 143.691132,128.345139 143.298004,128.219299 
	C142.296814,128.028839 141.688766,127.964233 141.055298,127.675888 
	C141.029877,127.452164 141.000275,127.001205 141.220016,126.717087 
	C140.628540,123.621780 139.817322,120.810585 139.391022,117.974884 
	C140.634354,117.521149 141.839462,117.319511 142.294907,116.625748 
	C145.240570,112.138748 144.286942,97.199722 140.968536,92.510162 
	C142.077850,90.455399 143.131439,88.734497 144.570007,87.063583 
	C145.636520,88.768433 146.883148,90.414635 146.908691,92.079567 
	C147.087173,103.712860 147.013046,115.350029 146.650726,127.018303 
	C145.458374,127.519745 144.635086,127.988846 143.811798,128.457947 
z"/>
<path fill="#A4B8D0" opacity="1.000000" stroke="none" 
	d="
M144.154968,128.715424 
	C144.635086,127.988846 145.458374,127.519745 147.093262,127.023132 
	C150.278870,126.989784 152.652878,126.983963 155.026886,126.978134 
	C166.995056,126.979492 178.963242,126.980850 191.390564,126.976089 
	C190.562286,127.637360 189.280273,128.872742 187.986618,128.885071 
	C173.491486,129.023056 158.994568,128.972641 144.154968,128.715424 
z"/>
<path fill="#CBD2DD" opacity="1.000000" stroke="none" 
	d="
M141.080719,127.899620 
	C141.688766,127.964233 142.296814,128.028839 143.362335,128.167511 
	C142.068878,129.155869 140.341904,130.801712 138.562897,130.860001 
	C130.077805,131.138031 121.577248,130.895355 113.084999,131.023773 
	C109.001747,131.085510 104.924706,131.558243 100.394272,131.634171 
	C99.943687,131.423477 99.955772,131.072708 100.073349,130.734802 
	C101.456139,129.924850 102.721359,129.452820 104.456726,128.988098 
	C115.071571,128.998199 125.216835,129.057266 135.360458,128.953918 
	C137.270584,128.934464 139.174133,128.267700 141.080719,127.899620 
z"/>
<path fill="#DEE6EF" opacity="1.000000" stroke="none" 
	d="
M99.955772,131.072708 
	C99.955772,131.072708 99.943687,131.423477 99.960648,131.598145 
	C84.760468,131.836929 69.543335,131.921524 54.326195,131.921539 
	C53.252663,131.921539 52.179134,131.297928 50.925934,130.588745 
	C50.824406,129.731674 50.902550,129.250122 51.005974,128.402893 
	C52.089764,128.010971 53.148273,127.984734 54.652512,128.384033 
	C56.885807,129.536743 58.663956,130.866623 60.462467,130.894760 
	C73.624611,131.100647 86.790833,131.045502 99.955772,131.072708 
z"/>
<path fill="#9AB7DA" opacity="1.000000" stroke="none" 
	d="
M155.018768,126.511749 
	C152.652878,126.983963 150.278870,126.989784 147.462341,126.990784 
	C147.013046,115.350029 147.087173,103.712860 146.908691,92.079567 
	C146.883148,90.414635 145.636520,88.768433 144.656158,86.698097 
	C146.970001,82.123245 143.399170,79.190346 142.299194,75.642120 
	C142.325684,75.511627 142.590958,75.488098 142.981903,75.607880 
	C145.914001,74.145920 148.455154,72.564186 151.182709,70.711807 
	C152.626556,68.953705 153.883972,67.466255 155.305176,65.851196 
	C155.677063,65.536705 155.849365,65.321213 156.176315,65.011780 
	C156.366745,64.946449 156.756531,64.845482 156.756531,64.845482 
	C157.774063,65.611313 158.791580,66.377144 159.758606,67.488998 
	C158.376511,68.994995 156.484024,69.913055 155.853455,71.375313 
	C155.040726,73.259933 155.039932,75.579643 155.032684,77.713127 
	C154.977951,93.823708 155.007431,109.934586 155.018768,126.511749 
z"/>
<path fill="#BDCFE6" opacity="1.000000" stroke="none" 
	d="
M100.073349,130.734802 
	C86.790833,131.045502 73.624611,131.100647 60.462467,130.894760 
	C58.663956,130.866623 56.885807,129.536743 55.049606,128.414185 
	C55.000980,128.018799 55.051323,127.564522 55.350304,127.149178 
	C59.142757,121.569511 62.636227,116.405190 66.268456,110.920433 
	C68.337021,107.763565 70.266823,104.927124 72.196632,102.090691 
	C73.153938,100.401505 74.111252,98.712326 75.439331,96.642929 
	C76.517845,96.223953 77.225586,96.185181 78.070129,96.445450 
	C79.521828,98.628067 80.836716,100.511627 82.285477,102.729012 
	C84.246094,105.777565 86.072845,108.492302 87.983154,111.516922 
	C88.684700,112.954414 89.302704,114.082024 89.997414,115.537323 
	C92.515602,119.206841 94.957077,122.548660 97.398552,125.890480 
	C98.019814,125.508926 98.641075,125.127380 99.262329,124.745827 
	C98.224251,122.740639 96.930237,120.821419 96.219719,118.706200 
	C95.502541,116.571136 95.364090,114.241676 95.265015,112.167267 
	C99.941414,117.087982 104.056557,121.974686 103.986588,128.980804 
	C102.721359,129.452820 101.456139,129.924850 100.073349,130.734802 
z"/>
<path fill="#5A90C1" opacity="1.000000" stroke="none" 
	d="
M67.043839,62.423729 
	C67.831070,61.786865 68.614807,61.519749 69.678680,61.116257 
	C70.304565,64.249290 70.984970,67.524178 70.931534,70.787041 
	C70.787659,79.572548 70.330666,88.352921 69.769226,97.830521 
	C67.912491,101.399200 66.284485,104.272697 64.656471,107.146187 
	C64.656471,107.146187 64.258347,107.171906 64.058144,107.151810 
	C66.714455,94.771187 66.685341,82.311592 65.051872,69.387794 
	C65.656212,66.914940 66.348282,64.854202 67.043839,62.423729 
z"/>
<path fill="#8AA7C8" opacity="1.000000" stroke="none" 
	d="
M66.129700,111.240868 
	C62.636227,116.405190 59.142757,121.569511 55.369999,126.921494 
	C54.973194,125.601608 54.199223,123.669418 54.852062,122.660210 
	C57.643703,118.344772 60.856277,114.301636 64.486115,110.282089 
	C65.414497,110.683617 65.772095,110.962242 66.129700,111.240868 
z"/>
<path fill="#5588B5" opacity="1.000000" stroke="none" 
	d="
M66.268456,110.920433 
	C65.772095,110.962242 65.414497,110.683617 64.792297,110.188705 
	C64.592651,109.264793 64.657608,108.557167 64.689514,107.497864 
	C66.284485,104.272697 67.912491,101.399200 69.766556,98.263260 
	C70.160797,97.999931 70.328979,97.999046 70.749435,97.996033 
	C71.196869,99.298866 71.392014,100.603844 71.891891,101.999756 
	C70.266823,104.927124 68.337021,107.763565 66.268456,110.920433 
z"/>
<path fill="#1677B0" opacity="1.000000" stroke="none" 
	d="
M117.000549,77.004578 
	C117.001411,66.184410 116.891510,55.361988 117.111115,44.546261 
	C117.148132,42.723484 118.607536,40.929588 119.799316,39.022591 
	C120.532669,39.253006 120.876442,39.583187 121.509949,40.345825 
	C122.393425,41.742134 122.987175,42.705978 123.640839,43.958687 
	C123.865921,44.808205 124.031082,45.368858 123.819221,46.079399 
	C122.961494,48.217743 122.136841,50.192509 122.057037,52.196934 
	C121.608589,63.460960 121.339508,74.732132 120.757538,85.999847 
	C120.338058,85.997345 120.170273,85.995850 119.983818,85.621964 
	C118.976952,82.501236 117.988754,79.752907 117.000549,77.004578 
z"/>
<path fill="#F0F2C8" opacity="1.000000" stroke="none" 
	d="
M123.580925,43.669823 
	C122.987175,42.705978 122.393425,41.742134 121.729691,40.442574 
	C126.276474,36.311287 130.901260,33.243046 137.391693,32.645592 
	C151.593918,31.338266 164.344940,47.174809 158.068451,61.357365 
	C157.667068,62.264324 157.351700,63.209354 156.876434,64.491081 
	C156.756531,64.845482 156.366745,64.946449 155.976624,65.098587 
	C155.336334,65.431168 155.187973,65.673866 155.141373,65.978806 
	C153.883972,67.466255 152.626556,68.953705 150.829834,70.770424 
	C147.723984,72.562492 145.157471,74.025291 142.590958,75.488098 
	C142.590958,75.488098 142.325684,75.511627 142.092590,75.400414 
	C141.225906,74.194130 140.592316,73.099060 140.340225,71.981651 
	C149.663101,69.830437 156.559647,62.519382 156.988998,54.714363 
	C157.425049,46.787369 151.573944,38.752598 143.319427,35.943211 
	C136.103699,33.487370 128.842468,36.329773 123.580925,43.669823 
z"/>
<path fill="#1A72A9" opacity="1.000000" stroke="none" 
	d="
M116.625793,77.003693 
	C117.988754,79.752907 118.976952,82.501236 119.825424,85.888855 
	C119.056282,87.046486 118.426865,87.564819 117.511047,87.912788 
	C116.005920,85.704620 114.787193,83.666817 113.500504,81.350060 
	C113.255066,80.726837 113.077606,80.382561 113.131287,79.797646 
	C113.575806,78.705772 113.789177,77.854538 114.002556,77.003304 
	C114.752052,77.003136 115.501541,77.002968 116.625793,77.003693 
z"/>
<path fill="#2777AB" opacity="1.000000" stroke="none" 
	d="
M113.798752,76.799797 
	C113.789177,77.854538 113.575806,78.705772 112.848358,79.852577 
	C111.855545,80.430885 111.376793,80.713623 110.536575,80.995712 
	C109.452423,80.996834 108.729729,80.998611 108.007034,81.000389 
	C108.008766,80.558678 108.010498,80.116974 108.015930,79.344208 
	C109.164215,78.122536 110.308792,77.231911 111.725479,76.170441 
	C112.530037,76.198486 113.062485,76.397385 113.798752,76.799797 
z"/>
<path fill="#C1D2E8" opacity="1.000000" stroke="none" 
	d="
M113.568474,81.629005 
	C114.787193,83.666817 116.005920,85.704620 117.650558,88.237297 
	C120.190712,92.250092 122.304947,95.768021 124.510666,99.635223 
	C126.048363,102.694550 127.494576,105.404602 128.999039,108.452606 
	C133.038284,114.860771 137.019287,120.930992 141.000275,127.001205 
	C141.000275,127.001205 141.029877,127.452164 141.055298,127.675888 
	C139.174133,128.267700 137.270584,128.934464 135.360458,128.953918 
	C125.216835,129.057266 115.071571,128.998199 104.456726,128.988098 
	C104.056557,121.974686 99.941414,117.087982 95.333954,111.831261 
	C95.410103,110.228569 95.710236,109.131783 96.115150,107.703323 
	C98.244324,103.915649 100.268723,100.459633 102.568298,96.900543 
	C103.212204,96.150047 103.580933,95.502625 104.006157,94.527184 
	C104.698891,92.792099 105.335144,91.385033 105.971405,89.977966 
	C106.668251,88.890312 107.365105,87.802658 108.354401,86.213181 
	C109.361214,84.788551 110.075584,83.865753 111.148163,82.811226 
	C112.193741,82.329330 112.881104,81.979164 113.568474,81.629005 
z"/>
<path fill="#4687BB" opacity="1.000000" stroke="none" 
	d="
M100.969604,51.978786 
	C101.814171,50.136463 102.658730,48.294136 103.746422,46.222603 
	C104.326103,47.414505 104.978142,48.841930 104.949867,50.255749 
	C104.697388,62.878998 104.324913,75.499847 103.586441,88.557266 
	C102.128098,88.995071 101.071091,88.997009 99.806702,88.798645 
	C99.388855,88.070015 99.178383,87.541695 99.327286,86.895462 
	C100.453499,85.064667 101.713013,83.399361 101.883949,81.628944 
	C102.232712,78.016701 102.115974,74.343109 101.972542,70.703400 
	C101.726448,64.458382 101.312866,58.219971 100.969604,51.978786 
z"/>
<path fill="#4683B2" opacity="1.000000" stroke="none" 
	d="
M100.014084,88.998947 
	C101.071091,88.997009 102.128098,88.995071 103.580582,88.989029 
	C104.474121,89.235329 104.972183,89.485725 105.720818,89.857040 
	C105.335144,91.385033 104.698891,92.792099 103.750839,94.552032 
	C103.269295,94.883759 103.099541,94.862625 102.859184,94.535004 
	C101.910294,93.084343 101.032005,91.940186 100.134743,90.496132 
	C100.081871,89.797134 100.047981,89.398041 100.014084,88.998947 
z"/>
<path fill="#2F7DB2" opacity="1.000000" stroke="none" 
	d="
M110.789955,82.942955 
	C110.075584,83.865753 109.361214,84.788551 108.415977,85.889969 
	C107.979462,84.541527 107.773811,83.014450 107.787598,81.243881 
	C108.729729,80.998611 109.452423,80.996834 110.564484,81.321022 
	C110.899216,82.078972 110.844582,82.510963 110.789955,82.942955 
z"/>
<path fill="#347FB5" opacity="1.000000" stroke="none" 
	d="
M77.933319,96.146408 
	C77.225586,96.185181 76.517845,96.223953 75.459717,96.313545 
	C76.045013,82.902145 76.980705,69.439919 77.991119,54.902748 
	C79.457008,56.691109 80.573700,58.053455 81.826462,59.730591 
	C81.308670,62.138508 80.199730,64.206017 80.080154,66.329239 
	C79.577072,75.261726 79.369560,84.210876 78.816605,93.796844 
	C78.364006,95.008644 78.148659,95.577522 77.933319,96.146408 
z"/>
<path fill="#0571AC" opacity="1.000000" stroke="none" 
	d="
M99.806702,88.798637 
	C100.047981,89.398041 100.081871,89.797134 99.959335,90.831215 
	C99.000572,93.102318 98.330139,94.820992 97.368599,96.357498 
	C95.326233,99.621078 93.132362,102.789848 91.000092,105.528992 
	C91.000359,97.584579 90.893982,90.105865 91.089554,82.635063 
	C91.130173,81.083366 92.290291,79.560982 92.934464,78.025085 
	C93.439842,78.589691 93.945213,79.154305 94.810349,80.201111 
	C96.436050,82.793335 97.701981,84.903358 98.967911,87.013374 
	C99.178383,87.541695 99.388855,88.070015 99.806702,88.798637 
z"/>
<path fill="#4F8BBE" opacity="1.000000" stroke="none" 
	d="
M99.327286,86.895462 
	C97.701981,84.903358 96.436050,82.793335 95.042435,80.368301 
	C95.938812,78.708115 97.793808,77.390900 97.840187,76.012825 
	C98.021378,70.629143 97.300476,65.208000 97.596832,59.838428 
	C97.736694,57.304497 99.419502,54.855724 100.686394,52.173576 
	C101.312866,58.219971 101.726448,64.458382 101.972542,70.703400 
	C102.115974,74.343109 102.232712,78.016701 101.883949,81.628944 
	C101.713013,83.399361 100.453499,85.064667 99.327286,86.895462 
z"/>
<path fill="#1375AF" opacity="1.000000" stroke="none" 
	d="
M92.847961,77.694405 
	C92.290291,79.560982 91.130173,81.083366 91.089554,82.635063 
	C90.893982,90.105865 91.000359,97.584579 90.666016,105.530045 
	C89.886986,105.999832 89.441505,106.000069 88.754684,105.768539 
	C87.676414,103.691994 86.839493,101.847221 86.002579,100.002441 
	C86.335068,92.508522 86.551895,85.006393 87.082603,77.526543 
	C87.212776,75.691864 88.368576,73.929962 89.432175,72.097786 
	C89.982231,72.120903 90.152962,72.180840 90.570419,72.354584 
	C91.465256,74.100166 92.113365,75.731949 92.847961,77.694405 
z"/>
<path fill="#1A72A9" opacity="1.000000" stroke="none" 
	d="
M85.668854,100.000824 
	C86.839493,101.847221 87.676414,103.691994 88.736626,106.148819 
	C88.606483,108.242912 88.253044,109.724976 87.899597,111.207031 
	C86.072845,108.492302 84.246094,105.777565 82.619141,102.516975 
	C83.212723,101.311737 83.606514,100.652359 84.000305,99.992981 
	C84.445244,99.995056 84.890190,99.997131 85.668854,100.000824 
z"/>
<path fill="#2777AB" opacity="1.000000" stroke="none" 
	d="
M83.936386,99.634216 
	C83.606514,100.652359 83.212723,101.311737 82.485268,102.183151 
	C80.836716,100.511627 79.521828,98.628067 78.070129,96.445450 
	C78.148659,95.577522 78.364006,95.008644 78.790833,94.216980 
	C80.102592,94.321327 81.202850,94.648445 82.650490,94.988693 
	C83.289398,96.426369 83.580925,97.850906 83.936386,99.634216 
z"/>
<path fill="#046FAB" opacity="1.000000" stroke="none" 
	d="
M128.940781,108.114662 
	C127.494576,105.404602 126.048363,102.694550 124.787682,99.394478 
	C124.648094,95.537926 124.322983,92.271393 124.234909,88.664993 
	C124.648140,86.533638 124.964485,84.743088 124.976547,82.950478 
	C125.032158,74.687920 124.817886,66.417328 125.150246,58.167736 
	C125.222328,56.378704 127.147423,54.664330 128.500015,53.122711 
	C132.506897,59.554565 136.232819,65.779282 139.958725,72.003990 
	C140.592316,73.099060 141.225906,74.194130 142.066101,75.530907 
	C143.399170,79.190346 146.970001,82.123245 144.271149,86.648109 
	C143.131439,88.734497 142.077850,90.455399 140.709061,92.734467 
	C137.587646,98.169159 134.781433,103.045692 131.603836,108.021347 
	C130.468567,108.118530 129.704681,108.116592 128.940781,108.114662 
z"/>
<path fill="#A5BEDC" opacity="1.000000" stroke="none" 
	d="
M131.975204,107.922226 
	C134.781433,103.045692 137.587646,98.169159 140.653351,93.068329 
	C144.286942,97.199722 145.240570,112.138748 142.294907,116.625748 
	C141.839462,117.319511 140.634354,117.521149 139.218964,117.688004 
	C136.433044,114.257835 134.204117,111.090034 131.975204,107.922226 
z"/>
<path fill="#9FB5D0" opacity="1.000000" stroke="none" 
	d="
M131.603836,108.021347 
	C134.204117,111.090034 136.433044,114.257835 138.834030,117.712509 
	C139.817322,120.810585 140.628540,123.621780 141.220016,126.717087 
	C137.019287,120.930992 133.038284,114.860771 128.999039,108.452606 
	C129.704681,108.116592 130.468567,108.118530 131.603836,108.021347 
z"/>
<path fill="#B6CADC" opacity="1.000000" stroke="none" 
	d="
M142.981903,75.607872 
	C145.157471,74.025291 147.723984,72.562492 150.643402,71.041077 
	C148.455154,72.564186 145.914001,74.145920 142.981903,75.607872 
z"/>
<path fill="#A9BED4" opacity="1.000000" stroke="none" 
	d="
M155.305176,65.851189 
	C155.187973,65.673866 155.336334,65.431168 155.786194,65.163910 
	C155.849365,65.321213 155.677063,65.536705 155.305176,65.851189 
z"/>
<path fill="#0B6CA4" opacity="1.000000" stroke="none" 
	d="
M87.983154,111.516922 
	C88.253044,109.724976 88.606483,108.242912 88.977982,106.380585 
	C89.441505,106.000069 89.886986,105.999832 90.666534,105.998543 
	C93.132362,102.789848 95.326233,99.621078 97.368599,96.357498 
	C98.330139,94.820992 99.000572,93.102318 99.978317,91.131111 
	C101.032005,91.940186 101.910294,93.084343 102.641296,94.743240 
	C102.427055,95.839859 102.360092,96.421738 102.293121,97.003616 
	C100.268723,100.459633 98.244324,103.915649 95.782280,107.777313 
	C93.536659,110.525192 91.728683,112.867416 89.920700,115.209633 
	C89.302704,114.082024 88.684700,112.954414 87.983154,111.516922 
z"/>
<path fill="#A7BBD2" opacity="1.000000" stroke="none" 
	d="
M89.997414,115.537323 
	C91.728683,112.867416 93.536659,110.525192 95.677505,108.108978 
	C95.710236,109.131783 95.410103,110.228569 95.041023,111.661377 
	C95.364090,114.241676 95.502541,116.571136 96.219719,118.706200 
	C96.930237,120.821419 98.224251,122.740639 99.262329,124.745827 
	C98.641075,125.127380 98.019814,125.508926 97.398552,125.890480 
	C94.957077,122.548660 92.515602,119.206841 89.997414,115.537323 
z"/>
<path fill="#F9F9D5" opacity="1.000000" stroke="none" 
	d="
M140.340225,71.981651 
	C136.232819,65.779282 132.506897,59.554565 128.444016,52.779427 
	C126.803436,50.129173 125.499832,48.029346 124.196243,45.929512 
	C124.031082,45.368858 123.865921,44.808205 123.640839,43.958687 
	C128.842468,36.329773 136.103699,33.487370 143.319427,35.943211 
	C151.573944,38.752598 157.425049,46.787369 156.988998,54.714363 
	C156.559647,62.519382 149.663101,69.830437 140.340225,71.981651 
z"/>
<path fill="#0B74AE" opacity="1.000000" stroke="none" 
	d="
M123.819214,46.079399 
	C125.499832,48.029346 126.803436,50.129173 128.163040,52.572289 
	C127.147423,54.664330 125.222328,56.378704 125.150246,58.167736 
	C124.817886,66.417328 125.032158,74.687920 124.976547,82.950478 
	C124.964485,84.743088 124.648140,86.533638 124.008308,88.460358 
	C122.699524,87.730675 121.854378,86.865768 121.009232,86.000862 
	C121.339508,74.732132 121.608589,63.460960 122.057037,52.196934 
	C122.136841,50.192509 122.961494,48.217743 123.819214,46.079399 
z"/>
<path fill="#0B6CA4" opacity="1.000000" stroke="none" 
	d="
M120.757538,85.999847 
	C121.854378,86.865768 122.699524,87.730675 123.771271,88.800217 
	C124.322983,92.271393 124.648094,95.537926 124.696190,99.045212 
	C122.304947,95.768021 120.190712,92.250092 117.936966,88.407654 
	C118.426865,87.564819 119.056282,87.046486 119.844101,86.261261 
	C120.170273,85.995850 120.338058,85.997345 120.757538,85.999847 
z"/>
<path fill="#BDCFE6" opacity="1.000000" stroke="none" 
	d="
M111.148163,82.811226 
	C110.844582,82.510963 110.899216,82.078972 110.925949,81.321671 
	C111.376793,80.713623 111.855545,80.430885 112.617226,80.093216 
	C113.077606,80.382561 113.255066,80.726837 113.500504,81.350060 
	C112.881104,81.979164 112.193741,82.329330 111.148163,82.811226 
z"/>
<path fill="#BDCFE6" opacity="1.000000" stroke="none" 
	d="
M102.568298,96.900543 
	C102.360092,96.421738 102.427055,95.839859 102.711914,95.049744 
	C103.099541,94.862625 103.269295,94.883759 103.694351,94.880035 
	C103.580933,95.502625 103.212204,96.150047 102.568298,96.900543 
z"/>
</svg>